<svg id="Layer_1" data-name="Layer 1" xmlns="http://www.w3.org/2000/svg" viewBox="0 0 10000 10000">
    <title>favicon</title>
    <!-- Big Triangle -->
    <polygon points="583 691 583 9371 2720 7233 4922 5031 583 691"/>
    <!-- Big Triangle -->
    <polygon points="9347 607 698 607 5023 4931 7225 2729 9347 607"/>
    <!-- Middle Triangle -->
    <polygon points="9441 9465 9441 5218 7325 7334 5194 9465 9441 9465"/>
    <!-- Small Triangle -->
    <polygon points="4852 9465 2770 7384 689 9465 4852 9465"/>
    <!-- Small Triangle -->
    <polygon points="7204 2950 5123 5031 7204 7112 7204 2950"/>
    <!-- Parallelogram -->
    <polygon points="7346 7112 9441 5017 9441 713 7346 2808 7346 7112"/>
    <!-- Square -->
    <rect x="3501" y="5762" width="3044" height="3044" transform="translate(-3679 5685) rotate(-45)"/>
</svg>
